<svg width="160" height="45" viewBox="0 0 160 45" fill="none" xmlns="http://www.w3.org/2000/svg">
<path d="M50.2812 45H21.4375C18.3333 45 15.5104 44.4167 12.9688 43.25C10.4271 42.0833 8.25 40.4896 6.4375 38.4688C4.64583 36.4479 3.26042 34.0729 2.28125 31.3438C1.30208 28.6146 0.8125 25.6979 0.8125 22.5938C0.8125 19.5104 1.30208 16.6146 2.28125 13.9062C3.26042 11.1771 4.64583 8.80208 6.4375 6.78125C8.25 4.73958 10.4271 3.13542 12.9688 1.96875C15.5104 0.78125 18.3333 0.1875 21.4375 0.1875H50.2812V6.59375H21.4375C19.2292 6.59375 17.2396 7.02083 15.4688 7.875C13.7188 8.70833 12.2292 9.85417 11 11.3125C9.79167 12.75 8.85417 14.4375 8.1875 16.375C7.54167 18.3125 7.21875 20.3854 7.21875 22.5938C7.21875 24.8021 7.54167 26.8854 8.1875 28.8438C8.85417 30.7812 9.79167 32.4792 11 33.9375C12.2292 35.375 13.7188 36.5104 15.4688 37.3438C17.2396 38.1771 19.2292 38.5938 21.4375 38.5938H50.2812V45ZM98.4688 27.3438C98.4688 29.7812 98.0833 32.0729 97.3125 34.2188C96.5417 36.3438 95.4375 38.2083 94 39.8125C92.5833 41.4167 90.875 42.6875 88.875 43.625C86.8958 44.5417 84.6875 45 82.25 45H71.125C68.6875 45 66.4688 44.5417 64.4688 43.625C62.4688 42.6875 60.75 41.4167 59.3125 39.8125C57.8958 38.2083 56.8021 36.3438 56.0312 34.2188C55.2604 32.0729 54.875 29.7812 54.875 27.3438C54.875 24.9271 55.2604 22.6562 56.0312 20.5312C56.8021 18.4062 57.8958 16.5521 59.3125 14.9688C60.75 13.3646 62.4688 12.1042 64.4688 11.1875C66.4688 10.2708 68.6875 9.8125 71.125 9.8125H82.25C84.6875 9.8125 86.8958 10.2708 88.875 11.1875C90.875 12.1042 92.5833 13.3646 94 14.9688C95.4375 16.5521 96.5417 18.4062 97.3125 20.5312C98.0833 22.6562 98.4688 24.9271 98.4688 27.3438ZM92.0625 27.3438C92.0625 25.8021 91.8333 24.3542 91.375 23C90.9375 21.625 90.2917 20.4375 89.4375 19.4375C88.6042 18.4167 87.5833 17.6146 86.375 17.0312C85.1667 16.4271 83.7917 16.125 82.25 16.125H71.125C69.5833 16.125 68.1979 16.4271 66.9688 17.0312C65.7604 17.6146 64.7292 18.4167 63.875 19.4375C63.0417 20.4375 62.3958 21.625 61.9375 23C61.5 24.3542 61.2812 25.8021 61.2812 27.3438C61.2812 28.8854 61.5 30.3438 61.9375 31.7188C62.3958 33.0729 63.0417 34.2604 63.875 35.2812C64.7292 36.3021 65.7604 37.1146 66.9688 37.7188C68.1979 38.3021 69.5833 38.5938 71.125 38.5938H82.25C83.7917 38.5938 85.1667 38.3021 86.375 37.7188C87.5833 37.1146 88.6042 36.3021 89.4375 35.2812C90.2917 34.2604 90.9375 33.0729 91.375 31.7188C91.8333 30.3438 92.0625 28.8854 92.0625 27.3438ZM111.875 45H105.531V9.8125H111.875V45ZM153.438 45C153.438 42.6667 153.042 40.4062 152.25 38.2188C151.479 36.0104 150.427 33.9375 149.094 32C147.781 30.0417 146.25 28.2188 144.5 26.5312C142.771 24.8438 140.948 23.3438 139.031 22.0312C137.115 20.6979 135.156 19.5833 133.156 18.6875C131.177 17.7708 129.292 17.0938 127.5 16.6562V45H121.094V9.8125H124.562V9.875C126.854 10 129.292 10.5104 131.875 11.4062C134.479 12.2812 137.062 13.4792 139.625 15C142.208 16.5 144.688 18.2917 147.062 20.375C149.458 22.4375 151.583 24.7188 153.438 27.2188V9.8125H159.812V45H153.438Z" fill="#7149E3"/>
<path d="M50.2812 45V46H51.2812V45H50.2812ZM12.9688 43.25L12.5516 44.1588L12.9688 43.25ZM6.4375 38.4688L5.68923 39.1322L5.69306 39.1364L6.4375 38.4688ZM2.28125 31.3438L1.34 31.6814L2.28125 31.3438ZM2.28125 13.9062L3.22168 14.2463L3.2225 14.244L2.28125 13.9062ZM6.4375 6.78125L5.68967 6.11736L5.68924 6.11784L6.4375 6.78125ZM12.9688 1.96875L13.3859 2.8776L13.392 2.87474L12.9688 1.96875ZM50.2812 0.1875H51.2812V-0.8125H50.2812V0.1875ZM50.2812 6.59375V7.59375H51.2812V6.59375H50.2812ZM15.4688 7.875L15.8987 8.77787L15.9032 8.77569L15.4688 7.875ZM11 11.3125L10.2354 10.668L10.2345 10.669L11 11.3125ZM8.1875 16.375L7.24187 16.0496L7.23882 16.0588L8.1875 16.375ZM8.1875 28.8438L7.23773 29.157L7.24191 29.1691L8.1875 28.8438ZM11 33.9375L10.23 34.5755L10.2349 34.5815L10.24 34.5874L11 33.9375ZM15.4688 37.3438L15.0388 38.2466L15.043 38.2486L15.4688 37.3438ZM50.2812 38.5938H51.2812V37.5938H50.2812V38.5938ZM50.2812 44H21.4375V46H50.2812V44ZM21.4375 44C18.4614 44 15.783 43.4415 13.3859 42.3412L12.5516 44.1588C15.2379 45.3919 18.2053 46 21.4375 46V44ZM13.3859 42.3412C10.9648 41.2299 8.90022 39.7168 7.18194 37.8011L5.69306 39.1364C7.59978 41.2623 9.88932 42.9368 12.5516 44.1588L13.3859 42.3412ZM7.18576 37.8053C5.48463 35.8866 4.16186 33.6242 3.2225 31.0061L1.34 31.6814C2.35897 34.5216 3.80704 37.0092 5.68924 39.1322L7.18576 37.8053ZM3.2225 31.0061C2.28487 28.3927 1.8125 25.591 1.8125 22.5938H-0.1875C-0.1875 25.8049 0.319294 28.8365 1.34 31.6814L3.2225 31.0061ZM1.8125 22.5938C1.8125 19.6181 2.28463 16.8381 3.22168 14.2463L1.34082 13.5662C0.319538 16.3911 -0.1875 19.4027 -0.1875 22.5938H1.8125ZM3.2225 14.244C4.16186 11.6257 5.48463 9.36337 7.18576 7.44466L5.68924 6.11784C3.80704 8.2408 2.35897 10.7284 1.34 13.5685L3.2225 14.244ZM7.18533 7.44514C8.90351 5.50972 10.9671 3.98785 13.3859 2.87758L12.5516 1.05992C9.88706 2.28298 7.59649 3.96944 5.68967 6.11736L7.18533 7.44514ZM13.392 2.87474C15.7876 1.75549 18.4639 1.1875 21.4375 1.1875V-0.8125C18.2028 -0.8125 15.2332 -0.192987 12.5455 1.06276L13.392 2.87474ZM21.4375 1.1875H50.2812V-0.8125H21.4375V1.1875ZM49.2812 0.1875V6.59375H51.2812V0.1875H49.2812ZM50.2812 5.59375H21.4375V7.59375H50.2812V5.59375ZM21.4375 5.59375C19.0974 5.59375 16.9565 6.04712 15.0343 6.97431L15.9032 8.77569C17.5227 7.99454 19.3609 7.59375 21.4375 7.59375V5.59375ZM15.0388 6.97214C13.1623 7.86573 11.5579 9.09888 10.2354 10.668L11.7646 11.957C12.9004 10.6095 14.2752 9.55093 15.8987 8.77786L15.0388 6.97214ZM10.2345 10.669C8.9402 12.2088 7.94491 14.0066 7.24191 16.0496L9.13309 16.7004C9.76343 14.8684 10.6431 13.2912 11.7655 11.956L10.2345 10.669ZM7.23882 16.0588C6.55634 18.1062 6.21875 20.2867 6.21875 22.5938H8.21875C8.21875 20.4842 8.52699 18.5188 9.13618 16.6912L7.23882 16.0588ZM6.21875 22.5938C6.21875 24.9009 6.55636 27.0906 7.23781 29.1569L9.13719 28.5306C8.52697 26.6802 8.21875 24.7032 8.21875 22.5938H6.21875ZM7.24191 29.1691C7.94456 31.2112 8.93869 33.0171 10.23 34.5755L11.77 33.2995C10.6446 31.9413 9.76377 30.3513 9.13309 28.5184L7.24191 29.1691ZM10.24 34.5874C11.5625 36.1341 13.1655 37.3546 15.0388 38.2466L15.8987 36.4409C14.272 35.6663 12.8958 34.6159 11.76 33.2876L10.24 34.5874ZM15.043 38.2486C16.9631 39.1522 19.1009 39.5938 21.4375 39.5938V37.5938C19.3574 37.5938 17.516 37.202 15.8945 36.4389L15.043 38.2486ZM21.4375 39.5938H50.2812V37.5938H21.4375V39.5938ZM49.2812 38.5938V45H51.2812V38.5938H49.2812ZM97.3125 34.2188L98.2526 34.5598L98.2536 34.5568L97.3125 34.2188ZM94 39.8125L93.2552 39.1451L93.2504 39.1506L94 39.8125ZM88.875 43.625L89.2953 44.5324L89.2994 44.5305L88.875 43.625ZM64.4688 43.625L64.0443 44.5305L64.0521 44.5341L64.4688 43.625ZM59.3125 39.8125L58.5629 40.4745L58.5678 40.4799L59.3125 39.8125ZM56.0312 34.2188L55.0901 34.5568L55.0912 34.5598L56.0312 34.2188ZM59.3125 14.9688L58.5678 14.3014L58.5673 14.302L59.3125 14.9688ZM88.875 11.1875L88.4547 12.0949L88.4583 12.0966L88.875 11.1875ZM94 14.9688L93.2504 15.6308L93.2596 15.6409L94 14.9688ZM91.375 23L90.4221 23.3032L90.4249 23.3119L90.4278 23.3206L91.375 23ZM89.4375 19.4375L88.6628 20.0699L88.6699 20.0785L88.6771 20.087L89.4375 19.4375ZM86.375 17.0312L85.9277 17.9258L85.9403 17.9318L86.375 17.0312ZM66.9688 17.0312L67.4035 17.9318L67.4099 17.9287L66.9688 17.0312ZM63.875 19.4375L63.1081 18.7958L63.1068 18.7973L63.875 19.4375ZM61.9375 23L60.9888 22.6838L60.9859 22.6926L61.9375 23ZM61.9375 31.7188L60.9846 32.022L60.9874 32.0307L60.9903 32.0393L61.9375 31.7188ZM63.875 35.2812L63.1003 35.9137L63.1081 35.923L63.875 35.2812ZM66.9688 37.7188L66.5215 38.6132L66.5307 38.6178L66.54 38.6222L66.9688 37.7188ZM86.375 37.7188L86.8098 38.6194L86.8222 38.6132L86.375 37.7188ZM89.4375 35.2812L88.6705 34.6395L88.6628 34.6489L89.4375 35.2812ZM91.375 31.7188L90.4263 31.4025L90.4234 31.4113L91.375 31.7188ZM97.4688 27.3438C97.4688 29.674 97.1006 31.8506 96.3714 33.8807L98.2536 34.5568C99.066 32.2953 99.4688 29.8885 99.4688 27.3438H97.4688ZM96.3724 33.8777C95.643 35.8885 94.6032 37.6409 93.2553 39.1451L94.7447 40.4799C96.2718 38.7757 97.4403 36.799 98.2526 34.5598L96.3724 33.8777ZM93.2504 39.1506C91.9273 40.6488 90.3307 41.8382 88.4506 42.7195L89.2994 44.5305C91.4193 43.5368 93.2394 42.1845 94.7496 40.4744L93.2504 39.1506ZM88.4547 42.7176C86.622 43.5664 84.5595 44 82.25 44V46C84.8155 46 87.1697 45.5169 89.2953 44.5324L88.4547 42.7176ZM82.25 44H71.125V46H82.25V44ZM71.125 44C68.8157 44 66.7412 43.5665 64.8854 42.7159L64.0521 44.5341C66.1963 45.5168 68.5593 46 71.125 46V44ZM64.8932 42.7195C63.0117 41.8376 61.4027 40.6466 60.0572 39.1451L58.5678 40.4799C60.0973 42.1867 61.9258 43.5374 64.0443 44.5305L64.8932 42.7195ZM60.0621 39.1506C58.7331 37.6457 57.7018 35.8915 56.9713 33.8777L55.0912 34.5598C55.9024 36.796 57.0586 38.771 58.5629 40.4744L60.0621 39.1506ZM56.9724 33.8807C56.2431 31.8506 55.875 29.674 55.875 27.3438H53.875C53.875 29.8885 54.2777 32.2953 55.0901 34.5568L56.9724 33.8807ZM55.875 27.3438C55.875 25.0353 56.2428 22.8806 56.9713 20.8723L55.0912 20.1902C54.278 22.4319 53.875 24.8189 53.875 27.3438H55.875ZM56.9713 20.8723C57.7014 18.8595 58.7316 17.1177 60.0577 15.6355L58.5673 14.302C57.0601 15.9864 55.9027 17.953 55.0912 20.1902L56.9713 20.8723ZM60.0572 15.6361C61.4011 14.1364 63.0075 12.9573 64.8854 12.0966L64.0521 10.2784C61.93 11.251 60.0989 12.5928 58.5678 14.3014L60.0572 15.6361ZM64.8854 12.0966C66.7412 11.246 68.8157 10.8125 71.125 10.8125V8.8125C68.5593 8.8125 66.1963 9.29566 64.0521 10.2784L64.8854 12.0966ZM71.125 10.8125H82.25V8.8125H71.125V10.8125ZM82.25 10.8125C84.5595 10.8125 86.622 11.2461 88.4547 12.0949L89.2953 10.2801C87.1697 9.29561 84.8155 8.8125 82.25 8.8125V10.8125ZM88.4583 12.0966C90.335 12.9567 91.9289 14.1342 93.2504 15.6307L94.7496 14.3068C93.2378 12.5949 91.415 11.2516 89.2917 10.2784L88.4583 12.0966ZM93.2596 15.6409C94.6047 17.1225 95.6434 18.8625 96.3724 20.8723L98.2526 20.1902C97.4399 17.95 96.2703 15.9817 94.7404 14.2966L93.2596 15.6409ZM96.3724 20.8723C97.101 22.8806 97.4688 25.0353 97.4688 27.3438H99.4688C99.4688 24.8189 99.0657 22.4319 98.2526 20.1902L96.3724 20.8723ZM93.0625 27.3438C93.0625 25.7016 92.8181 24.1446 92.3222 22.6794L90.4278 23.3206C90.8485 24.5637 91.0625 25.9026 91.0625 27.3438H93.0625ZM92.3279 22.6968C91.8539 21.2071 91.1468 19.8989 90.1979 18.788L88.6771 20.087C89.4366 20.9761 90.0211 22.0429 90.4221 23.3032L92.3279 22.6968ZM90.2122 18.8051C89.2847 17.669 88.1471 16.7763 86.8097 16.1307L85.9403 17.9318C87.0195 18.4528 87.9236 19.1643 88.6628 20.0699L90.2122 18.8051ZM86.8222 16.1368C85.4566 15.454 83.9249 15.125 82.25 15.125V17.125C83.6584 17.125 84.8767 17.4002 85.9278 17.9257L86.8222 16.1368ZM82.25 15.125H71.125V17.125H82.25V15.125ZM71.125 15.125C69.4497 15.125 67.9104 15.4541 66.5276 16.1338L67.4099 17.9287C68.4854 17.4001 69.7169 17.125 71.125 17.125V15.125ZM66.534 16.1307C65.1989 16.7752 64.0541 17.6652 63.1081 18.7958L64.6419 20.0792C65.4043 19.1682 66.3219 18.4539 67.4035 17.9318L66.534 16.1307ZM63.1068 18.7973C62.1851 19.9034 61.4821 21.2039 60.9888 22.6838L62.8862 23.3162C63.3095 22.0461 63.8983 20.9716 64.6432 20.0777L63.1068 18.7973ZM60.9859 22.6926C60.5138 24.154 60.2812 25.7064 60.2812 27.3438H62.2812C62.2812 25.8978 62.4862 24.5543 62.8891 23.3074L60.9859 22.6926ZM60.2812 27.3438C60.2812 28.9813 60.5138 30.5424 60.9846 32.022L62.8904 31.4155C62.4862 30.1451 62.2812 28.7896 62.2812 27.3438H60.2812ZM60.9903 32.0393C61.4837 33.4973 62.1851 34.7925 63.1003 35.9136L64.6497 34.6489C63.8982 33.7284 63.3079 32.6486 62.8847 31.3982L60.9903 32.0393ZM63.1081 35.923C64.0517 37.0507 65.1923 37.9486 66.5215 38.6132L67.416 36.8243C66.3285 36.2806 65.4067 35.5535 64.6419 34.6395L63.1081 35.923ZM66.54 38.6222C67.92 39.2771 69.4548 39.5938 71.125 39.5938V37.5938C69.7118 37.5938 68.4759 37.3271 67.3975 36.8153L66.54 38.6222ZM71.125 39.5938H82.25V37.5938H71.125V39.5938ZM82.25 39.5938C83.9198 39.5938 85.447 39.2772 86.8097 38.6193L85.9403 36.8182C84.8864 37.327 83.6636 37.5938 82.25 37.5938V39.5938ZM86.8222 38.6132C88.1537 37.9474 89.2871 37.0468 90.2122 35.9136L88.6628 34.6489C87.9212 35.5574 87.0129 36.2817 85.9278 36.8243L86.8222 38.6132ZM90.2044 35.923C91.1466 34.7969 91.8523 33.4941 92.3266 32.0262L90.4234 31.4113C90.0227 32.6518 89.4367 33.7239 88.6706 34.6395L90.2044 35.923ZM92.3237 32.035C92.8181 30.5517 93.0625 28.986 93.0625 27.3438H91.0625C91.0625 28.7848 90.8486 30.1358 90.4263 31.4025L92.3237 32.035ZM111.875 45V46H112.875V45H111.875ZM105.531 45H104.531V46H105.531V45ZM105.531 9.8125V8.8125H104.531V9.8125H105.531ZM111.875 9.8125H112.875V8.8125H111.875V9.8125ZM111.875 44H105.531V46H111.875V44ZM106.531 45V9.8125H104.531V45H106.531ZM105.531 10.8125H111.875V8.8125H105.531V10.8125ZM110.875 9.8125V45H112.875V9.8125H110.875ZM153.438 45H152.438V46H153.438V45ZM152.25 38.2188L151.306 38.5483L151.31 38.5591L152.25 38.2188ZM149.094 32L148.263 32.5568L148.27 32.5669L149.094 32ZM144.5 26.5312L143.802 27.2469L143.806 27.2511L144.5 26.5312ZM139.031 22.0312L138.46 22.8522L138.466 22.8563L139.031 22.0312ZM133.156 18.6875L132.736 19.595L132.747 19.6001L133.156 18.6875ZM127.5 16.6562L127.737 15.6848L126.5 15.3827V16.6562H127.5ZM127.5 45V46H128.5V45H127.5ZM121.094 45H120.094V46H121.094V45ZM121.094 9.8125V8.8125H120.094V9.8125H121.094ZM124.562 9.8125H125.562V8.8125H124.562V9.8125ZM124.562 9.875H123.562V10.8219L124.508 10.8735L124.562 9.875ZM131.875 11.4062L131.547 12.3511L131.557 12.3542L131.875 11.4062ZM139.625 15L139.115 15.86L139.123 15.8648L139.625 15ZM147.062 20.375L146.403 21.1268L146.41 21.1329L147.062 20.375ZM153.438 27.2188L152.634 27.8145L154.438 30.2457V27.2188H153.438ZM153.438 9.8125V8.8125H152.438V9.8125H153.438ZM159.812 9.8125H160.812V8.8125H159.812V9.8125ZM159.812 45V46H160.812V45H159.812ZM154.438 45C154.438 42.551 154.022 40.1754 153.19 37.8784L151.31 38.5591C152.062 40.6371 152.438 42.7823 152.438 45H154.438ZM153.194 37.8892C152.394 35.5963 151.301 33.4436 149.918 31.4331L148.27 32.5669C149.553 34.4314 150.565 36.4246 151.306 38.5483L153.194 37.8892ZM149.924 31.4433C148.571 29.424 146.994 27.5467 145.194 25.8114L143.806 27.2511C145.506 28.8908 146.991 30.6593 148.263 32.5567L149.924 31.4433ZM145.198 25.8156C143.43 24.0894 141.562 22.5525 139.596 21.2062L138.466 22.8563C140.334 24.135 142.112 25.5981 143.802 27.2469L145.198 25.8156ZM139.602 21.2103C137.638 19.8438 135.625 18.6978 133.565 17.7749L132.747 19.6001C134.687 20.4689 136.591 21.5521 138.46 22.8522L139.602 21.2103ZM133.577 17.7801C131.549 16.841 129.602 16.1401 127.737 15.6848L127.263 17.6277C128.981 18.0474 130.805 18.7007 132.736 19.5949L133.577 17.7801ZM126.5 16.6562V45H128.5V16.6562H126.5ZM127.5 44H121.094V46H127.5V44ZM122.094 45V9.8125H120.094V45H122.094ZM121.094 10.8125H124.562V8.8125H121.094V10.8125ZM123.562 9.8125V9.875H125.562V9.8125H123.562ZM124.508 10.8735C126.691 10.9926 129.036 11.4801 131.547 12.3511L132.203 10.4614C129.547 9.54071 127.018 9.00742 124.617 8.87648L124.508 10.8735ZM131.557 12.3542C134.088 13.2049 136.608 14.3721 139.115 15.86L140.135 14.14C137.517 12.5862 134.87 11.3576 132.193 10.4583L131.557 12.3542ZM139.123 15.8648C141.647 17.3305 144.074 19.0837 146.403 21.1268L147.722 19.6232C145.301 17.4997 142.77 15.6695 140.127 14.1352L139.123 15.8648ZM146.41 21.1329C148.751 23.1478 150.825 25.3749 152.634 27.8145L154.241 26.623C152.342 24.0626 150.166 21.7272 147.715 19.6171L146.41 21.1329ZM154.438 27.2188V9.8125H152.438V27.2188H154.438ZM153.438 10.8125H159.812V8.8125H153.438V10.8125ZM158.812 9.8125V45H160.812V9.8125H158.812ZM159.812 44H153.438V46H159.812V44Z" fill="#7149E3"/>
</svg>
