<svg width="30" height="30" viewBox="0 0 30 30" fill="none" xmlns="http://www.w3.org/2000/svg">
<g id="cryptocurrency-01" opacity="0.5">
<path id="Vector" d="M22.3472 25.1124C20.2116 26.664 17.6396 27.4997 14.9999 27.4997C12.3602 27.4997 9.78817 26.664 7.65258 25.1124M20.4795 3.76477C22.8521 4.92196 24.7975 6.80055 26.0367 9.1313C27.276 11.4621 27.7456 14.1253 27.3782 16.7394M2.62166 16.7392C2.25428 14.1252 2.72389 11.4619 3.96317 9.13118C5.20245 6.80043 7.14779 4.92183 9.52038 3.76465M21.8749 14.9997C21.8749 18.7967 18.7969 21.8747 14.9999 21.8747C11.2029 21.8747 8.12489 18.7967 8.12489 14.9997C8.12489 11.2027 11.2029 8.1247 14.9999 8.1247C18.7969 8.1247 21.8749 11.2027 21.8749 14.9997Z" stroke="black" stroke-width="2" stroke-linecap="round" stroke-linejoin="round"/>
</g>
</svg>
