<svg width="82" height="88" viewBox="0 0 82 88" fill="none" xmlns="http://www.w3.org/2000/svg">
<g id="Frame" clip-path="url(#clip0_1085_2743)">
<g id="Group">
<path id="Vector" d="M40.9479 0C40.9479 0 12.2722 11.6348 0.0699463 11.0168C9.65679 16.3303 9.78132 15.5886 9.78132 15.5886L42.6502 3.72635L40.9479 0Z" fill="#7149E3"/>
<path id="Vector_2" d="M40.9115 0C40.9115 0 69.5872 11.6348 81.7895 11.0168C72.2027 16.3303 72.0781 15.5886 72.0781 15.5886L39.2092 3.72635L40.9115 0Z" fill="#7149E3"/>
<g id="Group_2">
<g id="Group_3">
<path id="Vector_3" d="M40.7536 0L81.6683 14.9388V68.6547L41.5238 87.9993L0.522827 68.6698V14.9501L40.7536 0ZM76.5283 18.4983L40.7697 5.44168L5.66428 18.4846V65.4432L41.4993 82.3377L76.5275 65.4584L76.5283 18.4983Z" fill="#7149E3"/>
<path id="Vector_4" d="M43.3368 48.5009L38.851 46.0099C53.6579 19.7419 77.5352 14.7674 78.5438 14.5664L79.5509 19.5713C79.3262 19.6153 56.9404 24.3684 43.3368 48.5009Z" fill="#7149E3"/>
<path id="Vector_5" d="M38.8508 48.5024C25.2502 24.3698 2.86289 19.616 2.63367 19.5713L3.63997 14.5664C4.64931 14.7651 28.5258 19.7419 43.3328 46.0098L38.8508 48.5024Z" fill="#7149E3"/>
<path id="Vector_6" d="M43.6632 85.2905H38.5233V47.2656H43.6632V85.2905Z" fill="#7149E3"/>
</g>
<path id="Vector_7" d="M81.8716 68.5856L75.7337 71.518L75.7245 20.4076C67.5818 24.5897 50.1327 35.0226 44.0025 50.2154L41.2893 55.8967L38.3216 50.3224C31.1691 34.369 14.1348 24.3183 6.17775 20.3356L6.11894 71.4285L0.00634766 68.5424L0.0124569 11.0205L4.24084 12.6971C5.33347 13.1301 29.0809 22.7334 41.0555 42.3343C52.1521 23.5023 76.4917 13.187 77.6172 12.7176L81.896 10.9355L81.8716 68.5856Z" fill="#A049E3"/>
</g>
</g>
</g>
<defs>
<clipPath id="clip0_1085_2743">
<rect width="81.8889" height="88" fill="white"/>
</clipPath>
</defs>
</svg>
