<svg width="67" height="72" viewBox="0 0 67 72" fill="none" xmlns="http://www.w3.org/2000/svg">
<g id="Frame" clip-path="url(#clip0_121_5807)">
<g id="Group">
<path id="Vector" d="M33.5023 0C33.5023 0 10.0403 9.51937 0.0566406 9.01372C7.90042 13.3611 8.00231 12.7543 8.00231 12.7543L34.8951 3.04883L33.5023 0Z" fill="#9B619B"/>
<path id="Vector_2" d="M33.471 0C33.471 0 56.9329 9.51937 66.9166 9.01372C59.0728 13.3611 58.9709 12.7543 58.9709 12.7543L32.0781 3.04883L33.471 0Z" fill="#9B619B"/>
<g id="Group_2">
<g id="Group_3">
<path id="Vector_3" d="M33.3419 0L66.8175 12.2226V56.172L33.972 71.9994L0.425781 56.1844V12.2319L33.3419 0ZM62.6121 15.135L33.355 4.45228L4.63243 15.1238V53.5445L33.952 67.3672L62.6115 53.5568L62.6121 15.135Z" fill="#9B619B"/>
<path id="Vector_4" d="M35.4574 39.6865L31.7871 37.6484C43.9019 16.1564 63.4379 12.0863 64.2631 11.9219L65.087 16.0168C64.9032 16.0528 46.5876 19.9417 35.4574 39.6865Z" fill="#9B619B"/>
<path id="Vector_5" d="M31.7865 39.6877C20.6588 19.9429 2.34184 16.0534 2.1543 16.0168L2.97763 11.9219C3.80346 12.0844 23.3388 16.1563 35.4536 37.6483L31.7865 39.6877Z" fill="#9B619B"/>
<path id="Vector_6" d="M35.7249 69.7792H31.5195V38.668H35.7249V69.7792Z" fill="#9B619B"/>
</g>
<path id="Vector_7" d="M66.9845 56.1096L61.9627 58.5089L61.9552 16.6913C55.2929 20.113 41.0163 28.649 36.0008 41.0795L33.7808 45.7278L31.3528 41.167C25.5007 28.1142 11.5636 19.8909 5.05323 16.6324L5.00512 58.4356L0.00390625 56.0742L0.00890472 9.0109L3.46849 10.3827C4.36246 10.737 23.7922 18.5942 33.5896 34.6313C42.6686 19.2233 62.5828 10.7835 63.5037 10.3994L67.0045 8.94141L66.9845 56.1096Z" fill="#3399AA"/>
</g>
</g>
</g>
<defs>
<clipPath id="clip0_121_5807">
<rect width="67" height="72" fill="white"/>
</clipPath>
</defs>
</svg>
