<svg width="155" height="49" viewBox="0 0 155 49" fill="none" xmlns="http://www.w3.org/2000/svg">
<path d="M44.2188 12.3125H26.3125V49H18.1875V12.3125H0.25V4.1875H44.2188V12.3125ZM78.9375 37.8125C78.9375 38.9375 78.7396 40.1562 78.3438 41.4688C77.9479 42.7604 77.3021 43.9688 76.4062 45.0938C75.5312 46.1979 74.375 47.125 72.9375 47.875C71.5208 48.625 69.7917 49 67.75 49H53.0938C51.9688 49 50.75 48.8021 49.4375 48.4062C48.1458 48.0104 46.9375 47.375 45.8125 46.5C44.7083 45.6042 43.7812 44.4479 43.0312 43.0312C42.2812 41.5938 41.9062 39.8542 41.9062 37.8125C41.9062 36.6875 42.1042 35.4688 42.5 34.1562C42.8958 32.8438 43.5312 31.6354 44.4062 30.5312C45.3021 29.4062 46.4583 28.4688 47.875 27.7188C49.3125 26.9688 51.0521 26.5938 53.0938 26.5938H67.75V34.3438H53.0938C51.9896 34.3438 51.1354 34.6875 50.5312 35.375C49.9271 36.0417 49.625 36.875 49.625 37.875C49.625 38.9375 49.9688 39.7708 50.6562 40.375C51.3646 40.9583 52.1979 41.25 53.1562 41.25H67.75C68.8542 41.25 69.7083 40.9167 70.3125 40.25C70.9167 39.5833 71.2188 38.75 71.2188 37.75V26.4062C71.2188 25.3438 70.8854 24.5 70.2188 23.875C69.5729 23.25 68.75 22.9375 67.75 22.9375H49.9062V15.2188H67.75C68.875 15.2188 70.0833 15.4167 71.375 15.8125C72.6875 16.2083 73.8958 16.8542 75 17.75C76.125 18.625 77.0625 19.7812 77.8125 21.2188C78.5625 22.6354 78.9375 24.3646 78.9375 26.4062V37.8125ZM94.125 8.28125H86V0.9375H94.125V8.28125ZM94.125 49H86V15.2188H94.125V49ZM116.781 49H113.156C111.99 49 110.74 48.8021 109.406 48.4062C108.094 48.0104 106.865 47.3646 105.719 46.4688C104.573 45.5521 103.625 44.375 102.875 42.9375C102.125 41.4792 101.75 39.6979 101.75 37.5938V0.9375H109.875V37.5938C109.875 38.5938 110.188 39.3958 110.812 40C111.438 40.5833 112.219 40.875 113.156 40.875H116.781V49ZM154.656 37.5938C154.656 38.9896 154.479 40.25 154.125 41.375C153.771 42.4792 153.302 43.4583 152.719 44.3125C152.135 45.1458 151.458 45.8646 150.688 46.4688C149.917 47.0521 149.104 47.5312 148.25 47.9062C147.417 48.2812 146.562 48.5625 145.688 48.75C144.833 48.9167 144.021 49 143.25 49H121.25V40.875H143.188C144.292 40.875 145.125 40.5938 145.688 40.0312C146.25 39.4688 146.531 38.6562 146.531 37.5938C146.427 35.4271 145.333 34.3438 143.25 34.3438H130.656C128.865 34.3438 127.344 34.0312 126.094 33.4062C124.844 32.7812 123.823 32 123.031 31.0625C122.26 30.125 121.698 29.1146 121.344 28.0312C121.01 26.9479 120.844 25.9375 120.844 25C120.844 23.1875 121.167 21.6667 121.812 20.4375C122.458 19.1875 123.271 18.1771 124.25 17.4062C125.229 16.6354 126.292 16.0833 127.438 15.75C128.583 15.3958 129.656 15.2188 130.656 15.2188H150.625V23.3438H130.719C130.302 23.3438 129.969 23.3958 129.719 23.5C129.49 23.5833 129.312 23.7083 129.188 23.875C129.083 24.0208 129.021 24.1875 129 24.375C128.979 24.5417 128.969 24.7083 128.969 24.875C128.99 25.2083 129.052 25.4688 129.156 25.6562C129.26 25.8438 129.385 25.9792 129.531 26.0625C129.698 26.1458 129.875 26.1979 130.062 26.2188C130.271 26.2188 130.469 26.2188 130.656 26.2188H143.25C145.333 26.2188 147.104 26.5938 148.562 27.3438C150.021 28.0938 151.198 29.0417 152.094 30.1875C152.99 31.3125 153.635 32.5417 154.031 33.875C154.448 35.2083 154.656 36.4479 154.656 37.5938Z" fill="#A049E3"/>
</svg>
