<svg width="226" height="72" viewBox="0 0 226 72" fill="none" xmlns="http://www.w3.org/2000/svg">
<path d="M64.6344 17.6168H38.4705V71.2231H26.5985V17.6168H0.388951V5.74487H64.6344V17.6168ZM115.364 54.8764C115.364 56.5202 115.075 58.301 114.496 60.2188C113.918 62.1061 112.974 63.8717 111.665 65.5155C110.387 67.1288 108.698 68.4835 106.597 69.5793C104.527 70.6752 102.001 71.2231 99.0173 71.2231H77.6022C75.9584 71.2231 74.1776 70.934 72.2598 70.3556C70.3725 69.7772 68.6069 68.8488 66.9631 67.5702C65.3497 66.2613 63.9951 64.5718 62.8992 62.5018C61.8034 60.4014 61.2554 57.8596 61.2554 54.8764C61.2554 53.2326 61.5446 51.4518 62.123 49.534C62.7014 47.6163 63.6298 45.8507 64.9083 44.2373C66.2173 42.5935 67.9068 41.2237 69.9767 40.1278C72.0772 39.0319 74.619 38.484 77.6022 38.484H99.0173V49.808H77.6022C75.9888 49.808 74.7407 50.3103 73.8579 51.3148C72.9752 52.2889 72.5338 53.5066 72.5338 54.9677C72.5338 56.5202 73.036 57.7378 74.0406 58.6206C75.0756 59.473 76.2932 59.8991 77.6935 59.8991H99.0173C100.631 59.8991 101.879 59.4121 102.762 58.438C103.644 57.4639 104.086 56.2462 104.086 54.7851V38.21C104.086 36.6576 103.599 35.4247 102.625 34.5115C101.681 33.5983 100.478 33.1416 99.0173 33.1416H72.9447V21.8633H99.0173C100.661 21.8633 102.427 22.1525 104.314 22.7309C106.232 23.3092 107.997 24.2529 109.611 25.5619C111.255 26.8404 112.624 28.5298 113.72 30.6303C114.816 32.7002 115.364 35.2268 115.364 38.21V54.8764ZM137.555 11.7265H125.683V0.996099H137.555V11.7265ZM137.555 71.2231H125.683V21.8633H137.555V71.2231ZM170.66 71.2231H165.363C163.658 71.2231 161.832 70.934 159.884 70.3556C157.966 69.7772 156.17 68.8335 154.496 67.5246C152.822 66.1852 151.436 64.4653 150.341 62.3649C149.245 60.234 148.697 57.6313 148.697 54.5568V0.996099H160.569V54.5568C160.569 56.0179 161.025 57.1899 161.939 58.0727C162.852 58.925 163.993 59.3512 165.363 59.3512H170.66V71.2231ZM226.001 54.5568C226.001 56.5963 225.743 58.438 225.225 60.0818C224.708 61.6952 224.023 63.1259 223.17 64.374C222.318 65.5916 221.329 66.6418 220.202 67.5246C219.076 68.3769 217.889 69.0771 216.641 69.625C215.423 70.1729 214.175 70.5839 212.897 70.8579C211.648 71.1014 210.461 71.2231 209.335 71.2231H177.189V59.3512H209.244C210.857 59.3512 212.075 58.9403 212.897 58.1184C213.718 57.2965 214.129 56.1093 214.129 54.5568C213.977 51.3909 212.379 49.808 209.335 49.808H190.933C188.316 49.808 186.093 49.3514 184.267 48.4382C182.44 47.5249 180.949 46.3834 179.792 45.0136C178.666 43.6437 177.844 42.1674 177.326 40.5844C176.839 39.0015 176.596 37.5251 176.596 36.1553C176.596 33.5069 177.068 31.2847 178.011 29.4887C178.955 27.6623 180.142 26.1859 181.573 25.0596C183.004 23.9333 184.556 23.1266 186.23 22.6395C187.905 22.1221 189.472 21.8633 190.933 21.8633H220.111V33.7352H191.025C190.416 33.7352 189.929 33.8113 189.564 33.9635C189.229 34.0853 188.97 34.268 188.787 34.5115C188.635 34.7246 188.544 34.9681 188.513 35.2421C188.483 35.4856 188.468 35.7291 188.468 35.9726C188.498 36.4597 188.59 36.8402 188.742 37.1142C188.894 37.3881 189.077 37.586 189.29 37.7078C189.533 37.8295 189.792 37.9056 190.066 37.9361C190.37 37.9361 190.659 37.9361 190.933 37.9361H209.335C212.379 37.9361 214.967 38.484 217.097 39.5799C219.228 40.6757 220.948 42.0608 222.257 43.7351C223.566 45.3789 224.51 47.1749 225.088 49.1231C225.697 51.0713 226.001 52.8825 226.001 54.5568Z" fill="white"/>
</svg>
