<svg width="233" height="66" viewBox="0 0 233 66" fill="none" xmlns="http://www.w3.org/2000/svg">
<path d="M72.7482 65.7817H30.6029C26.0672 65.7817 21.9425 64.9294 18.2287 63.2247C14.5149 61.52 11.3338 59.1913 8.68547 56.2385C6.06756 53.2858 4.04324 49.8155 2.61252 45.8278C1.1818 41.84 0.466441 37.5783 0.466441 33.0426C0.466441 28.5374 1.1818 24.3061 2.61252 20.3488C4.04324 16.361 6.06756 12.8908 8.68547 9.938C11.3338 6.95479 14.5149 4.61085 18.2287 2.90616C21.9425 1.17103 26.0672 0.303466 30.6029 0.303466H72.7482V9.66403H30.6029C27.3762 9.66403 24.4691 10.2881 21.8816 11.5361C19.3245 12.7538 17.148 14.428 15.352 16.5589C13.5864 18.6593 12.2166 21.125 11.2425 23.956C10.2988 26.787 9.827 29.8159 9.827 33.0426C9.827 36.2693 10.2988 39.3134 11.2425 42.1749C12.2166 45.0059 13.5864 47.4868 15.352 49.6176C17.148 51.7181 19.3245 53.3771 21.8816 54.5947C24.4691 55.8124 27.3762 56.4212 30.6029 56.4212H72.7482V65.7817ZM143.158 39.9831C143.158 43.5447 142.595 46.8932 141.468 50.0286C140.342 53.1336 138.729 55.858 136.628 58.202C134.558 60.5459 132.062 62.4028 129.14 63.7726C126.248 65.112 123.021 65.7817 119.46 65.7817H103.204C99.6427 65.7817 96.4008 65.112 93.4785 63.7726C90.5561 62.4028 88.0448 60.5459 85.9444 58.202C83.8744 55.858 82.2762 53.1336 81.1499 50.0286C80.0236 46.8932 79.4605 43.5447 79.4605 39.9831C79.4605 36.452 80.0236 33.1339 81.1499 30.029C82.2762 26.924 83.8744 24.2148 85.9444 21.9013C88.0448 19.5573 90.5561 17.7156 93.4785 16.3762C96.4008 15.0368 99.6427 14.3671 103.204 14.3671H119.46C123.021 14.3671 126.248 15.0368 129.14 16.3762C132.062 17.7156 134.558 19.5573 136.628 21.9013C138.729 24.2148 140.342 26.924 141.468 30.029C142.595 33.1339 143.158 36.452 143.158 39.9831ZM133.797 39.9831C133.797 37.7305 133.463 35.6149 132.793 33.6362C132.154 31.6271 131.21 29.892 129.962 28.4308C128.744 26.9392 127.253 25.7672 125.487 24.9149C123.721 24.0321 121.712 23.5907 119.46 23.5907H103.204C100.952 23.5907 98.9274 24.0321 97.1314 24.9149C95.3658 25.7672 93.859 26.9392 92.6109 28.4308C91.3933 29.892 90.4496 31.6271 89.7799 33.6362C89.1406 35.6149 88.821 37.7305 88.821 39.9831C88.821 42.2357 89.1406 44.3666 89.7799 46.3757C90.4496 48.3544 91.3933 50.0895 92.6109 51.5811C93.859 53.0727 95.3658 54.2599 97.1314 55.1427C98.9274 55.995 100.952 56.4212 103.204 56.4212H119.46C121.712 56.4212 123.721 55.995 125.487 55.1427C127.253 54.2599 128.744 53.0727 129.962 51.5811C131.21 50.0895 132.154 48.3544 132.793 46.3757C133.463 44.3666 133.797 42.2357 133.797 39.9831ZM162.747 65.7817H153.477V14.3671H162.747V65.7817ZM223.476 65.7817C223.476 62.3724 222.898 59.0695 221.741 55.8732C220.615 52.6465 219.077 49.6176 217.129 46.7866C215.211 43.9252 212.974 41.2616 210.417 38.7959C207.89 36.3302 205.227 34.1385 202.426 32.2207C199.626 30.2725 196.764 28.6439 193.842 27.3349C190.95 25.9955 188.195 25.0062 185.577 24.367V65.7817H176.217V14.3671H181.285V14.4585C184.634 14.6411 188.195 15.3869 191.97 16.6959C195.775 17.9744 199.55 19.7247 203.294 21.9469C207.068 24.1387 210.691 26.7566 214.161 29.8007C217.662 32.8143 220.767 36.1476 223.476 39.8005V14.3671H232.791V65.7817H223.476Z" fill="white"/>
<path d="M72.7482 65.7817V67.4968H74.4633V65.7817H72.7482ZM8.68547 56.2385L7.40211 57.3764L7.40869 57.3837L8.68547 56.2385ZM2.61252 20.3488L4.22544 20.9319L4.22686 20.928L2.61252 20.3488ZM8.68547 9.938L7.40287 8.79936L7.40213 8.80019L8.68547 9.938ZM18.2287 2.90616L18.9442 4.46492L18.9547 4.46002L18.2287 2.90616ZM72.7482 0.303465H74.4633V-1.41163H72.7482V0.303465ZM72.7482 9.66403V11.3791H74.4633V9.66403H72.7482ZM21.8816 11.5361L22.619 13.0847L22.6267 13.0809L21.8816 11.5361ZM15.352 16.5589L14.0406 15.4535L14.0391 15.4553L15.352 16.5589ZM11.2425 23.956L9.62073 23.398L9.61804 23.4058L9.61542 23.4136L11.2425 23.956ZM11.2425 42.1749L9.6137 42.712L9.61715 42.7225L9.62073 42.7329L11.2425 42.1749ZM15.352 49.6176L14.0314 50.7119L14.0398 50.7222L14.0485 50.7323L15.352 49.6176ZM21.8816 54.5947L21.1442 56.1432L21.1513 56.1466L21.8816 54.5947ZM72.7482 56.4212H74.4633V54.7061H72.7482V56.4212ZM72.7482 64.0666H30.6029V67.4968H72.7482V64.0666ZM30.6029 64.0666C26.2868 64.0666 22.4099 63.2568 18.9442 61.666L17.5132 64.7834C21.475 66.602 25.8476 67.4968 30.6029 67.4968V64.0666ZM18.9442 61.666C15.4372 60.0562 12.449 57.866 9.96225 55.0934L7.40869 57.3837C10.2186 60.5166 13.5926 62.9838 17.5132 64.7834L18.9442 61.666ZM9.96881 55.1007C7.50618 52.3231 5.5893 49.046 4.22686 45.2486L0.99818 46.407C2.49718 50.585 4.62894 54.2484 7.40213 57.3763L9.96881 55.1007ZM4.22686 45.2486C2.86738 41.4594 2.18154 37.3949 2.18154 33.0426H-1.24865C-1.24865 37.7617 -0.503777 42.2206 0.99818 46.407L4.22686 45.2486ZM2.18154 33.0426C2.18154 28.7221 2.86696 24.6894 4.22544 20.9319L0.999603 19.7656C-0.503357 23.9228 -1.24865 28.3526 -1.24865 33.0426H2.18154ZM4.22686 20.928C5.5893 17.1305 7.50618 13.8534 9.96881 11.0758L7.40213 8.80019C4.62894 11.9281 2.49718 15.5915 0.99818 19.7696L4.22686 20.928ZM9.96807 11.0766C12.4547 8.27565 15.4411 6.07285 18.9442 4.46489L17.5132 1.34743C13.5887 3.14884 10.213 5.63393 7.40287 8.79936L9.96807 11.0766ZM18.9547 4.46002C22.4179 2.84194 26.2911 2.01856 30.6029 2.01856V-1.41163C25.8433 -1.41163 21.467 -0.49988 17.5027 1.35229L18.9547 4.46002ZM30.6029 2.01856H72.7482V-1.41163H30.6029V2.01856ZM71.0331 0.303465V9.66403H74.4633V0.303465H71.0331ZM72.7482 7.94893H30.6029V11.3791H72.7482V7.94893ZM30.6029 7.94893C27.1501 7.94893 23.9835 8.61806 21.1365 9.99136L22.6267 13.0809C24.9546 11.9581 27.6022 11.3791 30.6029 11.3791V7.94893ZM21.1442 9.98765C18.3701 11.3086 15.9968 13.1326 14.0406 15.4535L16.6634 17.6642C18.2992 15.7234 20.279 14.1989 22.619 13.0846L21.1442 9.98765ZM14.0391 15.4553C12.1261 17.7312 10.6571 20.3859 9.62073 23.398L12.8643 24.514C13.7761 21.8641 15.0468 19.5874 16.6649 17.6625L14.0391 15.4553ZM9.61542 23.4136C8.60891 26.4332 8.11191 29.6465 8.11191 33.0426H11.5421C11.5421 29.9852 11.9888 27.1408 12.8696 24.4984L9.61542 23.4136ZM8.11191 33.0426C8.11191 36.4389 8.60895 39.6654 9.6137 42.712L12.8713 41.6377C11.9887 38.9615 11.5421 36.0998 11.5421 33.0426H8.11191ZM9.62073 42.7329C10.6566 45.7432 12.1235 48.4093 14.0314 50.7119L16.6727 48.5234C15.0494 46.5642 13.7767 44.2685 12.8643 41.6168L9.62073 42.7329ZM14.0485 50.7323C16.0047 53.02 18.3757 54.8249 21.1442 56.1432L22.619 53.0462C20.2734 51.9293 18.2914 50.4161 16.6555 48.503L14.0485 50.7323ZM21.1513 56.1466C23.9949 57.4848 27.1562 58.1363 30.6029 58.1363V54.7061C27.5961 54.7061 24.9432 54.14 22.6119 53.0429L21.1513 56.1466ZM30.6029 58.1363H72.7482V54.7061H30.6029V58.1363ZM71.0331 56.4212V65.7817H74.4633V56.4212H71.0331ZM141.468 50.0286L143.081 50.6134L143.083 50.6084L141.468 50.0286ZM136.628 58.202L135.351 57.0574L135.343 57.0667L136.628 58.202ZM129.14 63.7726L129.861 65.3289L129.868 65.3256L129.14 63.7726ZM93.4785 63.7726L92.7505 65.3256L92.7572 65.3287L92.7639 65.3318L93.4785 63.7726ZM85.9444 58.202L84.6588 59.3373L84.6671 59.3465L85.9444 58.202ZM81.1499 50.0286L79.5358 50.6084L79.5376 50.6134L81.1499 50.0286ZM85.9444 21.9012L84.6671 20.7567L84.6662 20.7576L85.9444 21.9012ZM129.14 16.3762L128.419 17.9325L128.425 17.9354L129.14 16.3762ZM136.628 21.9012L135.343 23.0365L135.351 23.0454L135.359 23.0541L136.628 21.9012ZM132.793 33.6362L131.158 34.1562L131.163 34.1712L131.168 34.1861L132.793 33.6362ZM129.962 28.4308L128.633 29.5154L128.645 29.5302L128.658 29.5447L129.962 28.4308ZM125.487 24.9149L124.72 26.4489L124.731 26.4542L124.741 26.4594L125.487 24.9149ZM97.1314 24.9149L97.877 26.4595L97.8879 26.4541L97.1314 24.9149ZM92.6109 28.4308L91.2955 27.3302L91.2933 27.3328L92.6109 28.4308ZM89.7799 33.6362L88.1528 33.0938L88.1503 33.1014L88.1479 33.1089L89.7799 33.6362ZM89.7799 46.3757L88.1455 46.8957L88.1503 46.9107L88.1553 46.9255L89.7799 46.3757ZM92.6109 51.5811L91.2823 52.6657L91.2889 52.6737L91.2955 52.6817L92.6109 51.5811ZM97.1314 55.1427L96.3643 56.6767L96.3801 56.6846L96.396 56.6921L97.1314 55.1427ZM125.487 55.1427L126.233 56.6872L126.243 56.682L126.254 56.6767L125.487 55.1427ZM129.962 51.5811L128.646 50.4805L128.64 50.4884L128.633 50.4965L129.962 51.5811ZM132.793 46.3757L131.166 45.8333L131.163 45.8409L131.161 45.8484L132.793 46.3757ZM141.443 39.9831C141.443 43.3608 140.909 46.5119 139.854 49.4488L143.083 50.6084C144.28 47.2745 144.873 43.7286 144.873 39.9831H141.443ZM139.856 49.4437C138.801 52.3528 137.298 54.8849 135.351 57.0574L137.906 59.3465C140.16 56.8312 141.883 53.9144 143.081 50.6134L139.856 49.4437ZM135.343 57.0667C133.433 59.229 131.129 60.9462 128.412 62.2197L129.868 65.3256C132.996 63.8594 135.684 61.8628 137.914 59.3373L135.343 57.0667ZM128.419 62.2164C125.778 63.4394 122.802 64.0666 119.46 64.0666V67.4968C123.241 67.4968 126.718 66.7846 129.861 65.3289L128.419 62.2164ZM119.46 64.0666H103.204V67.4968H119.46V64.0666ZM103.204 64.0666C99.8626 64.0666 96.868 63.4395 94.1931 62.2135L92.7639 65.3318C95.9336 66.7846 99.4229 67.4968 103.204 67.4968V64.0666ZM94.2064 62.2197C91.4873 60.9451 89.1643 59.2253 87.2216 57.0574L84.6671 59.3465C86.9253 61.8666 89.6249 63.8605 92.7505 65.3256L94.2064 62.2197ZM87.2299 57.0667C85.3103 54.893 83.8193 52.3579 82.7622 49.4437L79.5376 50.6134C80.7332 53.9093 82.4384 56.823 84.6588 59.3373L87.2299 57.0667ZM82.764 49.4488C81.709 46.5119 81.1755 43.3608 81.1755 39.9831H77.7454C77.7454 43.7286 78.3382 47.2745 79.5358 50.6084L82.764 49.4488ZM81.1755 39.9831C81.1755 36.6376 81.7085 33.5187 82.7622 30.6138L79.5376 29.4441C78.3387 32.7492 77.7454 36.2664 77.7454 39.9831H81.1755ZM82.7622 30.6138C83.8187 27.7014 85.3077 25.1849 87.2225 23.0449L84.6662 20.7576C82.441 23.2446 80.7338 26.1466 79.5376 29.4441L82.7622 30.6138ZM87.2216 23.0458C89.1615 20.881 91.4801 19.1788 94.1931 17.9354L92.7639 14.8171C89.6322 16.2524 86.928 18.2336 84.6671 20.7567L87.2216 23.0458ZM94.1931 17.9354C96.868 16.7094 99.8626 16.0822 103.204 16.0822V12.652C99.4229 12.652 95.9336 13.3643 92.7639 14.8171L94.1931 17.9354ZM103.204 16.0822H119.46V12.652H103.204V16.0822ZM119.46 16.0822C122.802 16.0822 125.778 16.7094 128.419 17.9325L129.861 14.82C126.718 13.3642 123.241 12.652 119.46 12.652V16.0822ZM128.425 17.9354C131.136 19.1778 133.436 20.8773 135.343 23.0365L137.914 20.766C135.681 18.2373 132.988 16.2535 129.855 14.8171L128.425 17.9354ZM135.359 23.0541C137.3 25.1931 138.802 27.7065 139.856 30.6138L143.081 29.4441C141.883 26.1415 140.157 23.2364 137.898 20.7484L135.359 23.0541ZM139.856 30.6138C140.91 33.5187 141.443 36.6376 141.443 39.9831H144.873C144.873 36.2664 144.28 32.7492 143.081 29.4441L139.856 30.6138ZM135.512 39.9831C135.512 37.5582 135.152 35.2555 134.417 33.0863L131.168 34.1861C131.773 35.9742 132.082 37.9028 132.082 39.9831H135.512ZM134.427 33.1162C133.725 30.9104 132.676 28.9682 131.266 27.3169L128.658 29.5447C129.743 30.8157 130.582 32.3438 131.158 34.1562L134.427 33.1162ZM131.29 27.3462C129.911 25.657 128.22 24.3296 126.233 23.3704L124.741 26.4594C126.286 27.2049 127.577 28.2215 128.633 29.5154L131.29 27.3462ZM126.254 23.3809C124.219 22.3632 121.941 21.8756 119.46 21.8756V25.3058C121.484 25.3058 123.224 25.701 124.72 26.4489L126.254 23.3809ZM119.46 21.8756H103.204V25.3058H119.46V21.8756ZM103.204 21.8756C100.723 21.8756 98.4343 22.3634 96.3748 23.3757L97.8879 26.4541C99.4204 25.7008 101.181 25.3058 103.204 25.3058V21.8756ZM96.3857 23.3704C94.4027 24.3277 92.7011 25.6503 91.2955 27.3302L93.9263 29.5314C95.0168 28.2281 96.3289 27.2068 97.877 26.4594L96.3857 23.3704ZM91.2933 27.3328C89.9241 28.9759 88.8825 30.9048 88.1528 33.0938L91.407 34.1786C92.0167 32.3494 92.8624 30.808 93.9285 29.5288L91.2933 27.3328ZM88.1479 33.1089C87.4492 35.2715 87.1059 37.5664 87.1059 39.9831H90.5361C90.5361 37.8946 90.8321 35.9582 91.4119 34.1635L88.1479 33.1089ZM87.1059 39.9831C87.1059 42.4001 87.4492 44.7073 88.1455 46.8957L91.4143 45.8557C90.832 44.0259 90.5361 42.0714 90.5361 39.9831H87.1059ZM88.1553 46.9255C88.8853 49.0822 89.9242 51.002 91.2823 52.6657L93.9395 50.4965C92.8624 49.177 92.0139 47.6265 91.4045 45.8258L88.1553 46.9255ZM91.2955 52.6817C92.697 54.3566 94.3914 55.6902 96.3643 56.6767L97.8984 53.6086C96.3402 52.8295 95.0209 51.7887 93.9263 50.4805L91.2955 52.6817ZM96.396 56.6921C98.4507 57.6672 100.731 58.1363 103.204 58.1363V54.7061C101.172 54.7061 99.4041 54.3228 97.8667 53.5932L96.396 56.6921ZM103.204 58.1363H119.46V54.7061H103.204V58.1363ZM119.46 58.1363C121.932 58.1363 124.202 57.6674 126.233 56.6872L124.741 53.5981C123.241 54.3226 121.493 54.7061 119.46 54.7061V58.1363ZM126.254 56.6767C128.231 55.6883 129.916 54.3499 131.29 52.6657L128.633 50.4965C127.573 51.7955 126.274 52.8315 124.72 53.6086L126.254 56.6767ZM131.277 52.6817C132.676 51.0097 133.723 49.0767 134.425 46.903L131.161 45.8484C130.585 47.632 129.744 49.1693 128.646 50.4805L131.277 52.6817ZM134.42 46.9181C135.152 44.7232 135.512 42.4083 135.512 39.9831H132.082C132.082 42.0632 131.774 44.01 131.166 45.8333L134.42 46.9181ZM162.747 65.7817V67.4968H164.462V65.7817H162.747ZM153.477 65.7817H151.762V67.4968H153.477V65.7817ZM153.477 14.3671V12.652H151.762V14.3671H153.477ZM162.747 14.3671H164.462V12.652H162.747V14.3671ZM162.747 64.0666H153.477V67.4968H162.747V64.0666ZM155.192 65.7817V14.3671H151.762V65.7817H155.192ZM153.477 16.0822H162.747V12.652H153.477V16.0822ZM161.032 14.3671V65.7817H164.462V14.3671H161.032ZM223.476 65.7817H221.761V67.4968H223.476V65.7817ZM221.741 55.8732L220.122 56.4385L220.125 56.4477L220.128 56.4569L221.741 55.8732ZM217.129 46.7866L215.704 47.7415L215.71 47.7503L215.716 47.7589L217.129 46.7866ZM210.417 38.7959L209.219 40.0234L209.226 40.0305L210.417 38.7959ZM202.426 32.2207L201.447 33.6287L201.457 33.6358L202.426 32.2207ZM193.842 27.3349L193.121 28.8912L193.131 28.8958L193.141 28.9002L193.842 27.3349ZM185.577 24.367L185.984 22.7008L183.862 22.1827V24.367H185.577ZM185.577 65.7817V67.4968H187.292V65.7817H185.577ZM176.217 65.7817H174.502V67.4968H176.217V65.7817ZM176.217 14.3671V12.652H174.502V14.3671H176.217ZM181.285 14.3671H183V12.652H181.285V14.3671ZM181.285 14.4585H179.57V16.0826L181.192 16.171L181.285 14.4585ZM191.97 16.6959L191.408 18.3163L191.416 18.319L191.424 18.3216L191.97 16.6959ZM203.294 21.9469L202.418 23.4218L202.426 23.426L202.433 23.4301L203.294 21.9469ZM214.161 29.8007L213.03 31.09L213.036 31.0952L213.042 31.1005L214.161 29.8007ZM223.476 39.8005L222.099 40.8222L225.191 44.9921V39.8005H223.476ZM223.476 14.3671V12.652H221.761V14.3671H223.476ZM232.791 14.3671H234.506V12.652H232.791V14.3671ZM232.791 65.7817V67.4968H234.506V65.7817H232.791ZM225.191 65.7817C225.191 62.174 224.578 58.6736 223.354 55.2896L220.128 56.4569C221.217 59.4655 221.761 62.5708 221.761 65.7817H225.191ZM223.36 55.308C222.183 51.9362 220.576 48.7705 218.542 45.8144L215.716 47.7589C217.578 50.4648 219.046 53.3568 220.122 56.4385L223.36 55.308ZM218.554 45.8318C216.566 42.8659 214.25 40.109 211.607 37.5613L209.226 40.0305C211.698 42.4142 213.857 44.9845 215.704 47.7415L218.554 45.8318ZM211.615 37.5685C209.02 35.0365 206.281 32.7814 203.395 30.8056L201.457 33.6358C204.173 35.4956 206.76 37.6239 209.219 40.0234L211.615 37.5685ZM203.406 30.8128C200.523 28.8075 197.569 27.125 194.543 25.7697L193.141 28.9002C195.96 30.1628 198.728 31.7375 201.447 33.6286L203.406 30.8128ZM194.563 25.7787C191.588 24.4008 188.727 23.3707 185.984 22.7008L185.17 26.0331C187.663 26.6417 190.312 27.5903 193.121 28.8912L194.563 25.7787ZM183.862 24.367V65.7817H187.292V24.367H183.862ZM185.577 64.0666H176.217V67.4968H185.577V64.0666ZM177.932 65.7817V14.3671H174.502V65.7817H177.932ZM176.217 16.0822H181.285V12.652H176.217V16.0822ZM179.57 14.3671V14.4585H183V14.3671H179.57ZM181.192 16.171C184.353 16.3435 187.756 17.05 191.408 18.3163L192.532 15.0754C188.634 13.7238 184.914 12.9387 181.379 12.7459L181.192 16.171ZM191.424 18.3216C195.105 19.5585 198.77 21.2562 202.418 23.4218L204.169 20.472C200.33 18.1932 196.445 16.3902 192.516 15.0701L191.424 18.3216ZM202.433 23.4301C206.106 25.563 209.639 28.1149 213.03 31.09L215.292 28.5113C211.743 25.3982 208.031 22.7143 204.155 20.4637L202.433 23.4301ZM213.042 31.1005C216.448 34.0326 219.466 37.2728 222.099 40.8222L224.854 38.7788C222.068 35.0223 218.876 31.596 215.28 28.5009L213.042 31.1005ZM225.191 39.8005V14.3671H221.761V39.8005H225.191ZM223.476 16.0822H232.791V12.652H223.476V16.0822ZM231.076 14.3671V65.7817H234.506V14.3671H231.076ZM232.791 64.0666H223.476V67.4968H232.791V64.0666Z" fill="white"/>
</svg>
