<svg width="161" height="172" viewBox="0 0 161 172" fill="none" xmlns="http://www.w3.org/2000/svg">
<g clip-path="url(#clip0_1119_14328)">
<path d="M80.5437 0.000488281C80.5437 0.000488281 24.5688 22.7116 0.75 21.5052C19.4635 31.8771 19.7066 30.4295 19.7066 30.4295L83.8666 7.27432L80.5437 0.000488281Z" fill="white"/>
<path d="M80.4636 0.000488281C80.4636 0.000488281 136.439 22.7116 160.257 21.5052C141.544 31.8771 141.301 30.4295 141.301 30.4295L77.1406 7.27432L80.4636 0.000488281Z" fill="white"/>
<path d="M80.1866 0.000976562L160.052 29.1614V134.015L81.6901 171.775L1.65625 134.044V29.1836L80.1866 0.000976562ZM150.019 36.1096L80.218 10.6231L11.6924 36.0829V127.746L81.6423 160.724L150.017 127.776L150.019 36.1096Z" fill="white"/>
<path d="M85.2251 94.6466L76.4688 89.7841C105.372 38.5091 151.98 28.7988 153.949 28.4065L155.915 38.176C155.476 38.2619 111.779 47.5399 85.2251 94.6466Z" fill="white"/>
<path d="M76.4847 94.6495C49.9365 47.5428 6.2365 38.2633 5.78906 38.1759L7.75335 28.4065C9.72359 28.7943 56.3305 38.509 85.2337 89.784L76.4847 94.6495Z" fill="white"/>
<path d="M85.8925 166.488H75.8594V92.2634H85.8925V166.488Z" fill="white"/>
<path d="M160.441 133.894L148.46 139.618L148.442 39.8503C132.548 48.0138 98.487 68.3787 86.521 98.035L81.2247 109.125L75.4319 98.2438C61.4702 67.1028 28.2194 47.4839 12.6872 39.7097L12.5724 139.443L0.640625 133.809L0.65255 21.5266L8.90634 24.7994C11.0391 25.6446 57.3941 44.3902 80.7684 82.6511C102.429 45.8912 149.94 25.7556 152.137 24.8394L160.489 21.3608L160.441 133.894Z" fill="white"/>
</g>
<defs>
<clipPath id="clip0_1119_14328">
<rect width="159.847" height="171.776" fill="white" transform="translate(0.65625)"/>
</clipPath>
</defs>
</svg>
